<svg width="12" height="13" viewBox="0 0 12 13" fill="none" xmlns="http://www.w3.org/2000/svg">
<g clip-path="url(#clip0_13_11)">
<mask id="mask0_13_11" style="mask-type:luminance" maskUnits="userSpaceOnUse" x="0" y="0" width="12" height="13">
<path d="M12 0.290039H0V12.29H12V0.290039Z" fill="white"/>
</mask>
<g mask="url(#mask0_13_11)">
<path d="M11.5511 10.9401L1.35104 0.740107C1.10252 0.491579 0.699577 0.491579 0.451046 0.740107C0.202519 0.988632 0.202516 1.39158 0.451044 1.64011L10.6511 11.8401C10.8996 12.0886 11.3025 12.0886 11.5511 11.8401C11.7996 11.5916 11.7996 11.1886 11.5511 10.9401Z" fill="black"/>
<path d="M10.6501 0.740107L0.450068 10.9401C0.20154 11.1886 0.20154 11.5916 0.450067 11.8401C0.698593 12.0886 1.10154 12.0886 1.35007 11.8401L11.5501 1.6401C11.7986 1.39158 11.7986 0.988637 11.5501 0.740107C11.3015 0.491579 10.8986 0.491579 10.6501 0.740107Z" fill="black"/>
</g>
</g>
<defs>
<clipPath id="clip0_13_11">
<rect width="12" height="12" fill="white" transform="translate(0 0.290039)"/>
</clipPath>
</defs>
</svg>
